<?xml version="1.0" encoding="iso-8859-1"?>
<!-- Generator: Adobe Illustrator 16.0.0, SVG Export Plug-In . SVG Version: 6.00 Build 0)  -->
<!DOCTYPE svg PUBLIC "-//W3C//DTD SVG 1.1//EN" "http://www.w3.org/Graphics/SVG/1.1/DTD/svg11.dtd">
<svg version="1.1" id="Ebene_1" xmlns="http://www.w3.org/2000/svg" xmlns:xlink="http://www.w3.org/1999/xlink" x="0px" y="0px"
	 width="59.138px" height="62.361px" viewBox="0 0 59.138 62.361" style="enable-background:new 0 0 59.138 62.361;"
	 xml:space="preserve">
<g>
	<g>
		<path style="fill:#333333;" d="M15.454,6.595c-3.578,1.632-6.645,3.565-8.995,5.706c-5.575,4.939-7.208,10.948-6.16,18.6
			c0.975,6.16,3.639,11.635,7.542,16.163c0,0,0.084,0.055,0.067,0.035l6.503-34.453C14.751,10.85,15.454,6.595,15.454,6.595
			 M41.555,12.3c0-3.372-1.383-6.916-5.446-6.916c-4.667,0-8.991,5.273-10.546,13.572l-1.556,9.076
			c1.383,1.297,3.285,2.075,5.706,2.075C36.369,30.107,41.555,20.598,41.555,12.3 M54.54,8.624c-0.146-0.17-0.105-0.104-0.105-0.104
			c0.111,0.923,0.173,1.866,0.173,2.828c0,14.696-9.768,28.181-24.463,28.181c-3.458,0-6.397-0.864-7.867-1.728h-0.173
			l-3.437,17.781l0.124,0.097c3.805,2.005,8.032,3.47,12.537,4.307c7.963,1.133,13.472-0.66,17.966-5.933
			c4.532-5.087,7.802-13.408,9.384-23.445C59.876,20.892,58.813,13.611,54.54,8.624"/>
		<path style="fill:#FFFFFF;" d="M41.555,12.3c0,8.298-5.186,17.807-11.843,17.807c-2.421,0-4.322-0.778-5.705-2.075l1.556-9.077
			c1.555-8.299,5.878-13.571,10.545-13.571C40.172,5.384,41.555,8.929,41.555,12.3 M54.608,11.349c0-0.964-0.062-1.906-0.173-2.828
			c-0.116-0.133-0.224-0.272-0.345-0.402c-4.472-5.151-12.059-7.44-22.567-6.162c-5.926,0.908-11.437,2.525-16.084,4.646
			c-0.335,2.149-0.687,4.246-1.026,6.042L7.908,47.1c2.948,3.405,6.595,6.27,10.759,8.485l3.438-17.783h0.172
			c1.47,0.863,4.41,1.729,7.867,1.729C44.84,39.53,54.608,26.045,54.608,11.349"/>
	</g>
</g>
</svg>
